<svg xmlns="http://www.w3.org/2000/svg" width="1311.71" height="658.82" viewBox="0 0 1311.71 658.82"><path d="M672.6,188c20.4,0,35.15,6.46,48.89,18.79a3.74,3.74,0,0,1,.2,5.65l-12.33,12.73c-1.41,1.62-3.43,1.62-5.05,0a47.79,47.79,0,0,0-31.11-11.92c-25.86,0-45.05,21.62-45.05,47.07,0,25.26,19.39,46.67,45.25,46.67,12.13,0,22.43-4.64,30.91-11.51a3.71,3.71,0,0,1,5.05,0l12.53,12.93c1.62,1.41,1.21,4-.2,5.45-13.74,13.34-31.11,19.6-49.09,19.6a72.73,72.73,0,1,1,0-145.46Z" fill="#32424a"/><path d="M735.83,326.15l62.83-136A3.64,3.64,0,0,1,802.1,188h2a3.43,3.43,0,0,1,3.43,2.22l62.22,136a3.57,3.57,0,0,1-3.43,5.26H848.76c-3,0-4.44-1.21-5.85-4L833,305.55H772.6l-9.9,21.82a6.09,6.09,0,0,1-5.86,4H739.27A3.57,3.57,0,0,1,735.83,326.15Zm87.28-43L802.9,238.68h-.6l-19.8,44.44Z" fill="#32424a"/><path d="M894.22,193.83a3.84,3.84,0,0,1,3.84-3.84h57.78c24.24,0,44,19.39,44,43.44,0,18.58-12.32,33.73-29.9,40.8l27.68,51.32c1.41,2.63,0,5.86-3.44,5.86H973a3.45,3.45,0,0,1-3.23-1.82l-26.87-53.54H920.48v51.52a4,4,0,0,1-3.83,3.84H898.06a3.84,3.84,0,0,1-3.84-3.84Zm59.4,60.61c10.7,0,20-9.3,20-20.61,0-10.71-9.3-19.6-20-19.6H920.69v40.21Z" fill="#32424a"/><path d="M1034.83,193.83a3.84,3.84,0,0,1,3.84-3.84h82.22a3.83,3.83,0,0,1,3.84,3.84v16.56a3.83,3.83,0,0,1-3.84,3.84h-59.8v33.13H1111a4,4,0,0,1,3.84,3.84V268a3.83,3.83,0,0,1-3.84,3.84h-49.9v35.35h59.8a3.83,3.83,0,0,1,3.84,3.84v16.57a3.83,3.83,0,0,1-3.84,3.84h-82.22a3.84,3.84,0,0,1-3.84-3.84Z" fill="#32424a"/><path d="M646.76,372c14.13,0,24.34,4.48,33.85,13a2.62,2.62,0,0,1,.14,3.92l-8.54,8.81a2.23,2.23,0,0,1-3.49,0,33.08,33.08,0,0,0-21.54-8.25c-17.9,0-31.19,15-31.19,32.58s13.43,32.31,31.33,32.31a33.56,33.56,0,0,0,21.4-8,2.57,2.57,0,0,1,3.49,0l8.68,8.95a2.68,2.68,0,0,1-.14,3.78,48,48,0,0,1-34,13.56,50.35,50.35,0,1,1,0-100.7Z" fill="#32424a"/><path d="M701.87,376a2.66,2.66,0,0,1,2.65-2.66h56.93A2.65,2.65,0,0,1,764.1,376V387.5a2.64,2.64,0,0,1-2.65,2.65h-41.4v22.94h34.54a2.75,2.75,0,0,1,2.66,2.66v11.61a2.66,2.66,0,0,1-2.66,2.66H720.05v24.47h41.4a2.65,2.65,0,0,1,2.65,2.66v11.47a2.64,2.64,0,0,1-2.65,2.65H704.52a2.65,2.65,0,0,1-2.65-2.65Z" fill="#32424a"/><path d="M786.91,374.49a2.62,2.62,0,0,1,2.65-2.52h3.5l58.18,61.82h.14V376a2.66,2.66,0,0,1,2.66-2.66h12.87a2.74,2.74,0,0,1,2.65,2.66v94.13a2.62,2.62,0,0,1-2.65,2.51h-3.36l-58.46-64.19H805v60.14a2.65,2.65,0,0,1-2.66,2.65H789.56a2.74,2.74,0,0,1-2.65-2.65Z" fill="#32424a"/><path d="M911,390.15h-21.4a2.65,2.65,0,0,1-2.66-2.65V376a2.66,2.66,0,0,1,2.66-2.66h61.12a2.66,2.66,0,0,1,2.66,2.66V387.5a2.65,2.65,0,0,1-2.66,2.65h-21.4v78.47a2.74,2.74,0,0,1-2.66,2.65h-13a2.74,2.74,0,0,1-2.65-2.65Z" fill="#32424a"/><path d="M970.69,376a2.66,2.66,0,0,1,2.66-2.66h56.92a2.66,2.66,0,0,1,2.66,2.66V387.5a2.65,2.65,0,0,1-2.66,2.65h-41.4v22.94h34.55a2.74,2.74,0,0,1,2.65,2.66v11.61a2.65,2.65,0,0,1-2.65,2.66H988.87v24.47h41.4a2.66,2.66,0,0,1,2.66,2.66v11.47a2.65,2.65,0,0,1-2.66,2.65H973.35a2.65,2.65,0,0,1-2.66-2.65Z" fill="#32424a"/><path d="M1055.73,376a2.66,2.66,0,0,1,2.66-2.66h40a30.3,30.3,0,0,1,30.49,30.07c0,12.87-8.54,23.36-20.7,28.25l19.16,35.53a2.64,2.64,0,0,1-2.38,4h-14.69A2.39,2.39,0,0,1,1108,470L1089.43,433h-15.52v35.67a2.74,2.74,0,0,1-2.66,2.65h-12.86a2.65,2.65,0,0,1-2.66-2.65Zm41.12,42c7.41,0,13.84-6.44,13.84-14.27a13.92,13.92,0,0,0-13.84-13.57h-22.8V418Z" fill="#32424a"/><circle cx="366.79" cy="329.41" r="183.95" fill="#32424a"/><circle cx="366.79" cy="296.29" r="92.21" fill="#dd5a3f"/><path d="M340,406V348.77a35.59,35.59,0,0,0-35.6-35.49v57.25A35.61,35.61,0,0,0,340,406Z" fill="#6f7b34" stroke="#32434b" stroke-miterlimit="10" stroke-width="6.19"/><path d="M429.22,321.47v62.39a35.59,35.59,0,0,1-35.6,35.49V357A35.6,35.6,0,0,1,429.22,321.47Z" fill="#6f7b34" stroke="#32434b" stroke-miterlimit="10" stroke-width="6.19"/><path d="M341.42,467.12V309.87a47.72,47.72,0,0,1,47.64-47.5h3.09V419.62a47.71,47.71,0,0,1-47.63,47.5Z" fill="#6f7b34"/><path d="M389.06,265.47V419.62A44.53,44.53,0,0,1,344.52,464V309.87a44.53,44.53,0,0,1,44.54-44.4m6.19-6.2h-6.19a50.82,50.82,0,0,0-50.74,50.59V470.22h6.2a50.82,50.82,0,0,0,50.73-50.59V259.27Z" fill="#32434b"/></svg>