<?xml version="1.0" encoding="utf-8"?>
<!-- Generator: Adobe Illustrator 24.3.0, SVG Export Plug-In . SVG Version: 6.00 Build 0)  -->
<svg version="1.1" id="Layer_1" xmlns="http://www.w3.org/2000/svg" xmlns:xlink="http://www.w3.org/1999/xlink" x="0px" y="0px"
	 viewBox="0 0 831 182.1" style="enable-background:new 0 0 831 182.1;" xml:space="preserve">
<style type="text/css">
	.st0{fill:#22312E;}
</style>
<g>
	<g>
		<path class="st0" d="M56.7,159.8c-4,0-5.7-2.7-7.4-5.1l-12.3-18.5c-0.6-0.8-0.8-1.4-0.8-2.5v-9.8c0-1,0.1-1.9,1.1-1.9h0.3
			c9.6,0,14.7-3.3,14.7-9.2c0-6.7-5.2-8.1-9.8-8.1H28.7v38.6h5.8c1,0,1.6,0.5,1.6,1.7v13c0,1.2-0.4,1.7-1.8,1.7H4.2
			c-1,0-1.6-0.5-1.6-1.7v-13c0-1.2,0.4-1.7,1.8-1.7h7.3v-38.6H4.4c-1.4,0-1.8-0.5-1.8-1.7V90c0-1.2,0.6-1.7,1.6-1.7h41.3
			c17.7,0,24,10.3,24,22.7c0,9-5.5,19.6-16,20.9l-0.8,0.1l4.7,6.7c2.2,3.3,3.6,4.6,8,4.6h5.2c0.8,0,1.7,0.4,1.7,1.6V157
			c0,2.3-1.2,2.8-2.3,2.8H56.7z"/>
		<path class="st0" d="M136.6,158.1c0,1-0.7,1.5-1.7,1.7c-11.1,1.9-17.5-0.5-20.3-8.1c-2.5,5.3-9.8,9.3-18.5,9.3
			c-10.4,0-18.2-4.6-18.2-16.2c0-10.9,9.8-15.7,19.4-15.7c5.5,0,10.8,1.5,14.5,3.5v-2.9c0-4.8-4.9-7.2-11-7.2
			c-5,0-11.1,1.7-16.3,5.2c-0.5,0.4-1.4,0.7-1.4-0.6v-14.8c0-0.5,0.2-1,0.7-1.2c4.3-2.5,11-4.6,21.6-4.6c10.6,0,22.5,5.3,22.5,20
			v12.4c0,2.9,0.3,5.7,5.2,5.7h1.9c1,0,1.7,0.7,1.7,1.7V158.1z M111.7,142.2c0-2.5-6.5-3.5-9.3-3.5c-5.5,0-8.3,1.8-8.3,4.8
			c0,3.3,3.3,5.1,8.3,5.1c4.3,0,9.3-2.1,9.3-5.1V142.2z"/>
		<path class="st0" d="M186.8,159.8c-1.9,0-2.6-0.9-3.1-2.2l-3.1-8.6l-1,0.1c-1.9,7.3-8,12-16.1,12c-11.5,0-23.9-7.5-23.9-27.4
			c0-18.6,12.8-27.2,22.7-27.2c9.4,0,15.2,4.8,16.7,12.9h0.7v-15.8h-9.2c-1.4,0-1.8-0.5-1.8-1.7V90c0-1.2,0.6-1.7,1.6-1.7H194
			c1,0,1.7,0.7,1.7,1.7v54.6l4.8,12.5c0.7,1.8-0.5,2.8-1.5,2.8H186.8z M180.2,133.1c0-6.8-5.9-10.3-11.9-10.1
			c-5.7,0.1-11.3,3.7-11.3,10.7c0,8.4,6.6,12.1,12.8,11.3C175.2,144.5,180.2,140.4,180.2,133.1z"/>
		<path class="st0" d="M207.1,159.8c-1,0-1.6-0.5-1.6-1.7v-11.7c0-1.2,0.4-1.7,1.8-1.7h6v-21.7h-6c-1.4,0-1.8-0.5-1.8-1.7v-11.7
			c0-1.2,0.6-1.7,1.6-1.7h20c1.5,0,2.2,1,2.2,2.5v34.4h6c1.4,0,1.8,0.5,1.8,1.7v11.7c0,1.2-0.6,1.7-1.6,1.7H207.1z M220.8,103.1
			c-5.5,0-10.3-4.1-10.3-9.6c0-5.6,4.8-9.7,10.3-9.7c5.6,0,10.4,4.1,10.4,9.7C231.2,99,226.4,103.1,220.8,103.1z"/>
		<path class="st0" d="M290.4,154.5c0,0.4-0.2,0.8-0.6,1.1c-2.9,1.9-9.6,5.4-19.6,5.4c-16.1,0-29.1-8.9-29.1-27.1
			c0-17.6,12.9-27.5,28-27.5c9.9,0,16.9,2.9,22,6.7c0.4,0.3,0.6,0.7,0.6,1.2v12.4c0,0.6-0.5,1.2-1.1,1.4l-6.4,1.9
			c-0.6,0.2-1.1-0.1-1.4-0.6c-2.3-4.5-7.3-7-12.7-7c-6.2,0-12.4,3.2-12.4,10.8c0,8.2,7,12,13.3,12c6,0,10.6-2.7,12.7-6.5
			c0.3-0.6,0.8-0.8,1.4-0.6l5,1.6c0.4,0.1,0.8,0.5,0.8,1.1L290.4,154.5z"/>
		<path class="st0" d="M356.3,158.1c0,1-0.7,1.5-1.7,1.7c-11.1,1.9-17.5-0.5-20.3-8.1c-2.5,5.3-9.8,9.3-18.5,9.3
			c-10.4,0-18.2-4.6-18.2-16.2c0-10.9,9.8-15.7,19.4-15.7c5.5,0,10.8,1.5,14.5,3.5v-2.9c0-4.8-4.9-7.2-11-7.2
			c-5,0-11.1,1.7-16.3,5.2c-0.5,0.4-1.4,0.7-1.4-0.6v-14.8c0-0.5,0.2-1,0.7-1.2c4.3-2.5,11-4.6,21.6-4.6c10.6,0,22.5,5.3,22.5,20
			v12.4c0,2.9,0.3,5.7,5.2,5.7h1.9c1,0,1.7,0.7,1.7,1.7V158.1z M331.4,142.2c0-2.5-6.5-3.5-9.3-3.5c-5.5,0-8.3,1.8-8.3,4.8
			c0,3.3,3.3,5.1,8.3,5.1c4.3,0,9.3-2.1,9.3-5.1V142.2z"/>
		<path class="st0" d="M361.8,159.8c-1,0-1.6-0.5-1.6-1.7v-11.7c0-1.2,0.4-1.7,1.8-1.7h6v-41.1h-6c-1.4,0-1.8-0.5-1.8-1.7V90
			c0-1.2,0.6-1.7,1.6-1.7h19.8c1.5,0,2.2,1,2.2,2.5v53.8h6c1.4,0,1.8,0.5,1.8,1.7v11.7c0,1.2-0.6,1.7-1.6,1.7H361.8z"/>
		<path class="st0" d="M470.9,159.8c-1,0-1.6-0.5-1.6-1.7v-13c0-1.2,0.4-1.7,1.8-1.7h5.8v-12.3H447v12.3h5.8c1.4,0,1.8,0.5,1.8,1.7
			v13c0,1.2-0.6,1.7-1.6,1.7h-30.5c-1,0-1.6-0.5-1.6-1.7v-13c0-1.2,0.4-1.7,1.8-1.7h7.3v-38.6h-7.3c-1.4,0-1.8-0.5-1.8-1.7V90
			c0-1.2,0.6-1.7,1.6-1.7H453c1,0,1.6,0.5,1.6,1.7v13c0,1.2-0.4,1.7-1.8,1.7H447v10.5h29.9v-10.5h-5.8c-1.4,0-1.8-0.5-1.8-1.7V90
			c0-1.2,0.6-1.7,1.6-1.7h30.4c1,0,1.6,0.5,1.6,1.7v13c0,1.2-0.4,1.7-1.8,1.7h-7.3v38.6h7.3c1.4,0,1.8,0.5,1.8,1.7v13
			c0,1.2-0.6,1.7-1.6,1.7H470.9z"/>
		<path class="st0" d="M559.6,151c0,0.3-0.1,0.6-0.3,0.8c-5,5.3-14,9.2-23.3,9.2c-15.1,0-28.6-8.6-28.6-27.3
			c0-17.3,12.7-27.4,27.7-27.4c14.3,0,25.1,8.7,25.1,23.3v5.5c0,0.9-0.7,1.6-1.6,1.6h-33.8c1,5.4,6.9,8.3,13.5,8.3
			c5.4,0,11.2-1.9,15.3-5.8c0.3-0.3,0.7-0.4,1.2-0.3l4,1.2c0.5,0.2,0.8,0.5,0.8,1V151z M545.1,129.2c0-5.2-4.1-8.1-9.8-8.1
			c-6.3,0-9.7,3-10.6,8.1H545.1z"/>
		<path class="st0" d="M625.1,158.1c0,1-0.7,1.5-1.7,1.7c-11.1,1.9-17.5-0.5-20.3-8.1c-2.5,5.3-9.8,9.3-18.5,9.3
			c-10.4,0-18.2-4.6-18.2-16.2c0-10.9,9.8-15.7,19.4-15.7c5.5,0,10.8,1.5,14.5,3.5v-2.9c0-4.8-4.9-7.2-11-7.2
			c-5,0-11.1,1.7-16.3,5.2c-0.5,0.4-1.4,0.7-1.4-0.6v-14.8c0-0.5,0.2-1,0.7-1.2c4.3-2.5,11-4.6,21.6-4.6c10.6,0,22.5,5.3,22.5,20
			v12.4c0,2.9,0.3,5.7,5.2,5.7h1.9c1,0,1.7,0.7,1.7,1.7V158.1z M600.1,142.2c0-2.5-6.5-3.5-9.3-3.5c-5.5,0-8.3,1.8-8.3,4.8
			c0,3.3,3.3,5.1,8.3,5.1c4.3,0,9.3-2.1,9.3-5.1V142.2z"/>
		<path class="st0" d="M630.6,159.8c-1,0-1.6-0.5-1.6-1.7v-11.7c0-1.2,0.4-1.7,1.8-1.7h6v-41.1h-6c-1.4,0-1.8-0.5-1.8-1.7V90
			c0-1.2,0.6-1.7,1.6-1.7h19.8c1.5,0,2.2,1,2.2,2.5v53.8h6c1.4,0,1.8,0.5,1.8,1.7v11.7c0,1.2-0.6,1.7-1.6,1.7H630.6z"/>
		<path class="st0" d="M666.7,159.8c-1,0-1.6-0.5-1.6-1.7v-11.7c0-1.2,0.4-1.7,1.8-1.7h6v-21.7h-6c-1.4,0-1.8-0.5-1.8-1.7v-11.7
			c0-1.2,0.6-1.7,1.6-1.7h20c1.5,0,2.2,1,2.2,2.5v34.4h6c1.4,0,1.8,0.5,1.8,1.7v11.7c0,1.2-0.6,1.7-1.6,1.7H666.7z M680.4,103.1
			c-5.5,0-10.3-4.1-10.3-9.6c0-5.6,4.8-9.7,10.3-9.7c5.6,0,10.4,4.1,10.4,9.7C690.8,99,686,103.1,680.4,103.1z"/>
		<path class="st0" d="M737.9,159.8c-1,0-1.7-0.7-1.7-1.7v-11.7c0-1,0.7-1.7,1.7-1.7h4.2v-14.9c0-4.1-3.3-6.1-6.8-6.1
			c-4.6,0-9.9,3.4-9.9,10.1v10.9h3.9c1,0,1.7,0.7,1.7,1.7v11.7c0,1-0.7,1.7-1.7,1.7h-26c-1,0-1.7-0.7-1.7-1.7v-11.7
			c0-1,0.7-1.7,1.7-1.7h6.1v-21.7h-6c-1.4,0-1.8-0.5-1.8-1.7v-11.7c0-1.2,0.6-1.7,1.6-1.7h15.8c1.4,0,1.9,0.7,2,1.6l1.7,13.3h0.9
			c2.3-9.8,7.5-16.1,17.8-16.1c11.6,0,16.8,8.4,16.8,18.3v19.8h6.1c1,0,1.7,0.7,1.7,1.7v11.7c0,1-0.7,1.7-1.7,1.7H737.9z"/>
		<path class="st0" d="M806.9,152c-3,6.4-9.2,9-16.1,9c-10.7,0-21.7-7.6-21.7-26.5c0-19.6,13-28.2,23.2-28.2
			c7.5,0,14.9,3.4,17.6,12.1h0.9l2.8-9.3c0.4-1.3,1.3-1.4,2.8-1.4h10.9c1,0,2,1.3,1.5,2.8l-9.2,27.4v0.4c3.9,6.3,5.6,12.7,5.6,18.4
			c0,14.3-10.9,25.3-27.6,25.3c-10.6,0-16.5-1.6-23.3-4.4c-0.7-0.3-1.1-0.9-1.1-1.6l0.1-13.7c0-0.6,0.3-0.9,0.8-1l3.6-1
			c0.3-0.1,0.8,0,1,0.2c5.3,5.1,11.3,6.7,17.1,6.4c7.2-0.3,13.5-4.9,13.5-10.4c0-1.1-0.2-2.2-1.3-4.4H806.9z M806.8,132.9
			c0-7.2-5.3-10.8-10.7-10.8c-5.5,0-11,3.9-11,11.5s5.4,11.2,10.9,11.2C803.1,144.9,806.8,139.5,806.8,132.9z"/>
	</g>
	<g>
		<path class="st0" d="M8.9,36.6c0.8,2.6,1.4,3.7,2.9,4.8c2.1,1.7,5.5,2.6,9.4,2.6c6.1,0,9.9-2.7,9.9-7.1c0-3-2-5-6.2-6.1l-9.6-2.5
			c-5.1-1.4-7.7-2.7-9.5-5.1c-2-2.5-2.9-5.4-2.9-8.6c0-8.9,7.1-14.9,17.7-14.9c5.4,0,10.2,1.5,13.8,4.4c2.2,1.8,3.3,3.4,4.2,6.5
			L30,12.7C28.7,8.8,25.7,7,20.6,7c-5.2,0-8.6,2.4-8.6,6.2c0,2.9,2.3,4.9,7,6.1l8.6,2.1c5.4,1.4,8.6,3.2,10.6,6.2
			c1.6,2.3,2.4,5,2.4,8.1c0,9.5-7.9,15.7-20,15.7c-6.2,0-11.4-1.6-15.4-4.7c-2.5-2-3.8-4.1-5-8.1L8.9,36.6z"/>
		<path class="st0" d="M64.8,50.6c-2.3,0.5-4.7,0.8-5.9,0.8c-3.2,0-6.1-1.1-7.9-2.9c-2-2-2.6-4.2-2.6-9.2V20.1h-4.6v-6.5H49L49.8,4
			l6.8-0.6v10.2h7.5v6.5h-7.5v18c0,4.7,1.4,6,6.1,6c0.3,0,1.2,0,2.1-0.1V50.6z"/>
		<path class="st0" d="M93.5,50.6v-8c-1.1,3.2-2,4.5-3.9,6.1c-2.2,1.8-4.8,2.7-7.8,2.7c-4,0-7-1.5-9.1-4.5c-1.4-2-1.9-4-1.9-7.4
			V13.6h8.6v24.1c0,2,0.2,3.1,0.8,4.1c0.9,1.5,2.7,2.5,4.5,2.5c2.9,0,6-2.2,7.2-5.2c0.8-1.9,1.1-4,1.1-7.7V13.6h8.3v37H93.5z"/>
		<path class="st0" d="M133.8,50.6v-7.4c-2.3,5.6-5.6,8.2-10.9,8.2c-4.1,0-7.5-1.7-9.9-4.7c-2.5-3.3-4.2-9.3-4.2-15
			c0-6.1,1.9-11.7,5.2-15.5c2.3-2.7,5.5-4.1,9.4-4.1c4.7,0,7.9,2.1,9.9,6.5V0.5h8.3v50.1H133.8z M133.3,28.7c0-3.2-0.5-5-2-6.8
			c-1.5-1.8-3.5-2.8-5.7-2.8c-5.1,0-8,4.6-8,12.8c0,8.1,2.7,12.5,7.7,12.5c4.4,0,7.9-4.1,7.9-9.5V28.7z"/>
		<path class="st0" d="M182.7,39.8c-2.5,7.5-8.2,11.6-16.4,11.6c-10.4,0-17-7.5-17-19.1c0-11.6,7-19.4,17.4-19.4
			c10.7,0,16.6,7.2,16.7,20.3h-25.4v1.1c0.1,6.8,3.3,10.6,8.9,10.6c4.3,0,6.6-1.7,8.3-6L182.7,39.8z M174.7,27.7
			c-0.2-2.8-0.6-4.1-1.9-5.8c-1.6-2.1-3.8-3.2-6.5-3.2c-4.7,0-7.7,3.2-8.4,9H174.7z"/>
		<path class="st0" d="M213.2,50.6V27.4c0-4.5-2.3-7.4-5.8-7.4c-2.8,0-5.4,1.8-6.8,4.6c-0.9,1.8-1.4,4.1-1.4,6.9v19H191v-37h7.6v8.6
			c3.1-6.7,6.3-9.3,11.3-9.3c4.3,0,8.5,2.3,10.1,5.5c1.1,2.2,1.6,4.6,1.6,8.4v23.9H213.2z"/>
		<path class="st0" d="M248.7,50.6c-2.3,0.5-4.7,0.8-5.9,0.8c-3.2,0-6.1-1.1-7.9-2.9c-2-2-2.6-4.2-2.6-9.2V20.1h-4.6v-6.5h5.1
			l0.8-9.6l6.8-0.6v10.2h7.5v6.5h-7.5v18c0,4.7,1.4,6,6.1,6c0.3,0,1.2,0,2.1-0.1V50.6z"/>
		<path class="st0" d="M263.8,8.8l-5.6,9.8h-2.7l4.1-9.8h-4.1V0.5h8.3V8.8z"/>
		<path class="st0" d="M276.4,40.6c1.6,3.3,3.7,4.5,8.2,4.5c4.7,0,7.5-1.7,7.5-4.6c0-1.8-1.6-3.2-4.1-3.7l-6.8-1.4
			c-7.7-1.4-11.2-4.9-11.2-10.9c0-2.9,1.1-5.7,2.9-7.7c2.6-2.8,6.2-4.1,11.3-4.1c7.7,0,12.5,2.9,14.3,8.6l-7.5,1.6
			c-1-3-2.9-4.2-6.8-4.2c-4,0-6.5,1.6-6.5,4c0,2.2,1.6,3.5,5.3,4.2l8,1.7c6.2,1.2,9.3,4.9,9.3,10.7c0,7.4-6.3,12-16.1,12
			c-4.7,0-8.8-1.2-11.9-3.5c-2-1.5-2.9-2.9-3.8-5.8L276.4,40.6z"/>
		<path class="st0" d="M364.4,50.6h-4l-2.8-6.8c-3.2,5.2-7.4,7.5-13.5,7.5c-6.7,0-11.8-2.6-15.2-7.7c-3.3-4.9-5.1-11.4-5.1-18.2
			c0-6.9,2-13.3,5.5-18c3.8-5.1,9.2-7.7,15.9-7.7c6.1,0,10.7,2,14.3,6.4c2.3,2.6,3.3,4.8,4.3,8.9l-7.9,1.4c-0.7-2.7-1.2-4-2.3-5.3
			c-2-2.4-5-3.8-8.3-3.8c-3.5,0-6.5,1.5-8.6,4.1c-2.5,3.2-3.5,7.4-3.5,13.6c0,12.5,4.1,18.9,11.9,18.9c4.4,0,8-2.3,9.8-6.4
			c0.8-1.8,1-2.7,1-5.3h-10.4V25h18.8V50.6z"/>
		<path class="st0" d="M396.8,50.6v-8c-1.1,3.2-2,4.5-3.9,6.1c-2.2,1.8-4.8,2.7-7.8,2.7c-4,0-7-1.5-9.1-4.5c-1.4-2-1.9-4-1.9-7.4
			V13.6h8.6v24.1c0,2,0.2,3.1,0.8,4.1c0.9,1.5,2.7,2.5,4.5,2.5c2.9,0,6-2.2,7.2-5.2c0.8-1.9,1.1-4,1.1-7.7V13.6h8.3v37H396.8z"/>
		<path class="st0" d="M414.6,9.2V0.5h8.3v8.7H414.6z M414.6,50.6v-37h8.3v37H414.6z"/>
		<path class="st0" d="M455.6,50.6v-7.4c-2.3,5.6-5.6,8.2-10.9,8.2c-4.1,0-7.5-1.7-9.9-4.7c-2.5-3.3-4.2-9.3-4.2-15
			c0-6.1,1.9-11.7,5.2-15.5c2.3-2.7,5.5-4.1,9.4-4.1c4.7,0,7.9,2.1,9.9,6.5V0.5h8.3v50.1H455.6z M455.1,28.7c0-3.2-0.5-5-2-6.8
			c-1.5-1.8-3.5-2.8-5.7-2.8c-5.1,0-8,4.6-8,12.8c0,8.1,2.7,12.5,7.7,12.5c4.4,0,7.9-4.1,7.9-9.5V28.7z"/>
		<path class="st0" d="M504.5,39.8c-2.5,7.5-8.2,11.6-16.4,11.6c-10.4,0-17-7.5-17-19.1c0-11.6,7-19.4,17.4-19.4
			c10.7,0,16.6,7.2,16.7,20.3h-25.4v1.1c0.1,6.8,3.3,10.6,8.9,10.6c4.3,0,6.6-1.7,8.3-6L504.5,39.8z M496.5,27.7
			c-0.1-2.8-0.6-4.1-1.9-5.8c-1.6-2.1-3.8-3.2-6.5-3.2c-4.7,0-7.7,3.2-8.4,9H496.5z"/>
		<path class="st0" d="M548.6,50.6c-2.3,0.5-4.7,0.8-5.9,0.8c-3.2,0-6.1-1.1-7.9-2.9c-2-2-2.6-4.2-2.6-9.2V20.1h-4.6v-6.5h5.1
			l0.8-9.6l6.8-0.6v10.2h7.5v6.5h-7.5v18c0,4.7,1.4,6,6.1,6c0.3,0,1.2,0,2.1-0.1V50.6z"/>
		<path class="st0" d="M583.3,20.4c2.2,3.5,3.1,6.9,3.1,11.7c0,11.3-7.2,19.2-17.6,19.2c-5.7,0-10.2-2.3-13.2-6.8
			c-2.5-3.6-3.7-7.8-3.7-12.5c0-11.3,7.1-19.1,17.3-19.1C575.5,12.8,580,15.2,583.3,20.4z M560.8,32c0,8,3,12.5,8.3,12.5
			c5.4,0,8.4-4.5,8.4-12.6c0-8-2.9-12.2-8.3-12.2C563.9,19.6,560.8,24.1,560.8,32z"/>
	</g>
</g>
</svg>
